<svg width="64" height="64" viewBox="0 0 64 64" fill="none" xmlns="http://www.w3.org/2000/svg">
<path d="M20 25.0666L44 11.2266" stroke="#27930C" stroke-width="2" stroke-linecap="round" stroke-linejoin="round"/>
<path d="M8 42.6667V21.3334C8.00096 20.3981 8.24785 19.4796 8.7159 18.6698C9.18395 17.8601 9.8567 17.1877 10.6667 16.7201L29.3333 6.0534C30.1441 5.5853 31.0638 5.33887 32 5.33887C32.9362 5.33887 33.8559 5.5853 34.6667 6.0534L53.3333 16.7201C54.1433 17.1877 54.8161 17.8601 55.2841 18.6698C55.7522 19.4796 55.999 20.3981 56 21.3334V42.6667C55.999 43.602 55.7522 44.5206 55.2841 45.3303C54.8161 46.14 54.1433 46.8124 53.3333 47.2801L34.6667 57.9467C33.8559 58.4148 32.9362 58.6613 32 58.6613C31.0638 58.6613 30.1441 58.4148 29.3333 57.9467L10.6667 47.2801C9.8567 46.8124 9.18395 46.14 8.7159 45.3303C8.24785 44.5206 8.00096 43.602 8 42.6667Z" stroke="#27930C" stroke-width="2" stroke-linecap="round" stroke-linejoin="round"/>
<path d="M55.2798 18.5599L31.9998 32.0266L8.71979 18.5599" stroke="#27930C" stroke-width="2" stroke-linecap="round" stroke-linejoin="round"/>
<path d="M32 58.88V32" stroke="#27930C" stroke-width="2" stroke-linecap="round" stroke-linejoin="round"/>
<path d="M63.5083 43.1146C63.5083 48.9857 58.5682 53.7704 52.4427 53.7704C46.3172 53.7704 41.3771 48.9857 41.3771 43.1146C41.3771 37.2436 46.3172 32.4589 52.4427 32.4589C58.5682 32.4589 63.5083 37.2436 63.5083 43.1146Z" fill="white" stroke="#2B9B60" stroke-width="0.819672"/>
<circle cx="52" cy="44" r="12" fill="#F29E25"/>
<g clip-path="url(#clip0_663_10971)">
<path d="M46.6667 39.5556C47.0183 39.5556 47.362 39.4513 47.6543 39.2559C47.9467 39.0606 48.1746 38.783 48.3091 38.4581C48.4437 38.1333 48.4789 37.7758 48.4103 37.431C48.3417 37.0861 48.1724 36.7693 47.9237 36.5207C47.6751 36.2721 47.3583 36.1028 47.0135 36.0342C46.6686 35.9656 46.3112 36.0008 45.9863 36.1353C45.6615 36.2699 45.3838 36.4977 45.1885 36.7901C44.9932 37.0825 44.8889 37.4262 44.8889 37.7778C44.8889 38.2493 45.0762 38.7015 45.4096 39.0349C45.743 39.3683 46.1952 39.5556 46.6667 39.5556ZM46.6667 44.4467C46.6663 44.2806 46.6997 44.1161 46.7648 43.9633C46.8299 43.8105 46.9254 43.6725 47.0456 43.5578L49.0492 41.6667C49.095 41.6236 49.1539 41.6025 49.205 41.5675C49.0743 41.2366 48.8471 40.9525 48.553 40.7523C48.2589 40.552 47.9114 40.4448 47.5556 40.4444H45.7778C45.3063 40.4444 44.8541 40.6317 44.5207 40.9651C44.1873 41.2985 44 41.7507 44 42.2222V44.8889C44 45.1246 44.0937 45.3507 44.2603 45.5174C44.427 45.6841 44.6531 45.7778 44.8889 45.7778V49.3333C44.8889 49.5691 44.9825 49.7952 45.1492 49.9619C45.3159 50.1286 45.542 50.2222 45.7778 50.2222H47.5556C47.7913 50.2222 48.0174 50.1286 48.1841 49.9619C48.3508 49.7952 48.4444 49.5691 48.4444 49.3333V46.6558L47.0456 45.3356C46.9254 45.2208 46.8299 45.0829 46.7647 44.9301C46.6996 44.7773 46.6662 44.6128 46.6667 44.4467ZM57.3333 39.5556C57.6849 39.5556 58.0287 39.4513 58.321 39.2559C58.6134 39.0606 58.8412 38.783 58.9758 38.4581C59.1103 38.1333 59.1455 37.7758 59.077 37.431C59.0084 37.0861 58.839 36.7693 58.5904 36.5207C58.3418 36.2721 58.025 36.1028 57.6802 36.0342C57.3353 35.9656 56.9779 36.0008 56.653 36.1353C56.3282 36.2699 56.0505 36.4977 55.8552 36.7901C55.6598 37.0825 55.5556 37.4262 55.5556 37.7778C55.5556 38.2493 55.7429 38.7015 56.0763 39.0349C56.4097 39.3683 56.8618 39.5556 57.3333 39.5556ZM58.2222 40.4444H56.4444C56.0887 40.4448 55.7412 40.552 55.4471 40.7522C55.1529 40.9524 54.9258 41.2363 54.795 41.5672C54.8461 41.6025 54.9061 41.6228 54.9511 41.6669L56.9544 43.5575C57.0742 43.6725 57.1695 43.8105 57.2345 43.9633C57.2996 44.116 57.3332 44.2804 57.3332 44.4464C57.3332 44.6124 57.2996 44.7767 57.2345 44.9295C57.1695 45.0822 57.0742 45.2203 56.9544 45.3353L55.5556 46.6561V49.3333C55.5556 49.5691 55.6492 49.7952 55.8159 49.9619C55.9826 50.1286 56.2087 50.2222 56.4444 50.2222H58.2222C58.458 50.2222 58.6841 50.1286 58.8508 49.9619C59.0175 49.7952 59.1111 49.5691 59.1111 49.3333V45.7778C59.3469 45.7778 59.573 45.6841 59.7397 45.5174C59.9064 45.3507 60 45.1246 60 44.8889V42.2222C60 41.7507 59.8127 41.2985 59.4793 40.9651C59.1459 40.6317 58.6937 40.4444 58.2222 40.4444ZM56.3444 44.2039L54.3411 42.3133C54.2938 42.2683 54.2343 42.2381 54.17 42.2265C54.1057 42.215 54.0395 42.2226 53.9794 42.2484C53.9194 42.2742 53.8683 42.3171 53.8325 42.3717C53.7966 42.4263 53.7776 42.4902 53.7778 42.5556V43.5556H50.2222V42.5556C50.2225 42.4902 50.2035 42.4262 50.1677 42.3716C50.1318 42.3169 50.0807 42.274 50.0207 42.2482C49.9607 42.2223 49.8944 42.2147 49.83 42.2262C49.7657 42.2378 49.7062 42.268 49.6589 42.3131L47.6556 44.2039C47.5915 44.2684 47.5556 44.3556 47.5556 44.4465C47.5556 44.5374 47.5915 44.6246 47.6556 44.6892L49.6589 46.58C49.7062 46.6251 49.7658 46.6553 49.8301 46.6668C49.8945 46.6784 49.9608 46.6707 50.0208 46.6448C50.0809 46.619 50.132 46.576 50.1678 46.5213C50.2036 46.4666 50.2225 46.4026 50.2222 46.3372V45.3333H53.7778V46.3372C53.7775 46.4026 53.7964 46.4666 53.8322 46.5213C53.868 46.576 53.9191 46.619 53.9792 46.6448C54.0392 46.6707 54.1055 46.6784 54.1699 46.6668C54.2342 46.6553 54.2938 46.6251 54.3411 46.58L56.3444 44.6892C56.4085 44.6246 56.4444 44.5374 56.4444 44.4465C56.4444 44.3556 56.4085 44.2684 56.3444 44.2039Z" fill="white"/>
</g>
<defs>
<clipPath id="clip0_663_10971">
<rect width="16" height="14.2222" fill="white" transform="translate(44 36)"/>
</clipPath>
</defs>
</svg>
