<svg width="48" height="48" viewBox="0 0 48 48" fill="none" xmlns="http://www.w3.org/2000/svg">
<path fill-rule="evenodd" clip-rule="evenodd" d="M12.218 42.578C15.624 44.744 19.666 46 24 46C28.332 46 32.374 44.744 35.78 42.578L37.016 44.162C33.264 46.59 28.796 48 24 48C19.2 48 14.726 46.588 10.974 44.156L12.218 42.578ZM23.924 16C17.85 16 12.924 20.924 12.924 27C12.924 33.074 17.85 38 23.924 38C29.998 38 34.924 33.074 34.924 27C34.924 20.924 29.998 16 23.924 16ZM38 38H36C36 35.792 37.792 34 40 34H44C45.926 34 48 35.52 48 38H46C46 36.762 44.962 36 44 36H40C38.896 36 38 36.898 38 38ZM2 38H0C0 35.792 1.792 34 4 34H8C9.926 34 12 35.52 12 38H10C10 36.762 8.962 36 8 36H4C2.896 36 2 36.898 2 38ZM24 18C29.278 18 33 21.722 33 27C33 32.278 29.278 36 24 36C18.722 36 15 32.278 15 27C15 21.722 18.722 18 24 18ZM42 24C44.484 24 46.5 26.016 46.5 28.5C46.5 30.984 44.484 33 42 33C39.516 33 37.5 30.984 37.5 28.5C37.5 26.016 39.516 24 42 24ZM6 24C8.484 24 10.5 26.016 10.5 28.5C10.5 30.984 8.484 33 6 33C3.516 33 1.5 30.984 1.5 28.5C1.5 26.016 3.516 24 6 24ZM24.5 33H23.5V32.002C22.464 31.984 21.394 31.736 20.5 31.274L20.954 29.63C21.91 30.002 23.182 30.396 24.18 30.17C25.328 29.91 25.564 28.728 24.294 28.16C23.362 27.726 20.516 27.354 20.516 24.918C20.516 23.554 21.554 22.334 23.5 22.068V21H24.5V22.018C25.224 22.038 26.036 22.164 26.942 22.438L26.58 24.086C25.812 23.816 24.964 23.572 24.138 23.622C22.648 23.708 22.518 24.998 23.556 25.538C25.268 26.342 27.5 26.938 27.5 29.082C27.502 30.8 26.156 31.714 24.5 31.946V33ZM42 26.25C43.242 26.25 44.25 27.258 44.25 28.5C44.25 29.742 43.242 30.75 42 30.75C40.758 30.75 39.75 29.742 39.75 28.5C39.75 27.258 40.758 26.25 42 26.25ZM6 26.25C7.242 26.25 8.25 27.258 8.25 28.5C8.25 29.742 7.242 30.75 6 30.75C4.758 30.75 3.75 29.742 3.75 28.5C3.75 27.258 4.758 26.25 6 26.25ZM2.364 20H0.332C1.79 11.332 7.898 4.236 16 1.368V3.502C9.008 6.236 3.754 12.444 2.364 20ZM47.668 20H45.636C44.246 12.444 38.992 6.236 32 3.502V1.368C40.102 4.236 46.21 11.332 47.668 20ZM20 14H18C18 11.792 19.792 10 22 10H26C27.926 10 30 11.52 30 14H28C28 12.762 26.962 12 26 12H22C20.896 12 20 12.898 20 14ZM24 0C26.484 0 28.5 2.016 28.5 4.5C28.5 6.984 26.484 9 24 9C21.516 9 19.5 6.984 19.5 4.5C19.5 2.016 21.516 0 24 0ZM24 2.25C25.242 2.25 26.25 3.258 26.25 4.5C26.25 5.742 25.242 6.75 24 6.75C22.758 6.75 21.75 5.742 21.75 4.5C21.75 3.258 22.758 2.25 24 2.25Z" fill="#474747"/>
</svg>
