<svg width="22" height="22" viewBox="0 0 22 22" fill="none" xmlns="http://www.w3.org/2000/svg">
<path d="M15.0644 7.31497C15.0644 7.21185 14.98 7.12747 14.8769 7.12747L13.3301 7.1345L11.0004 9.91185L8.67304 7.13685L7.12382 7.12982C7.0207 7.12982 6.93633 7.21185 6.93633 7.31732C6.93633 7.36185 6.95273 7.40404 6.98086 7.43919L10.0301 11.072L6.98086 14.7025C6.95254 14.7368 6.93682 14.7798 6.93633 14.8243C6.93633 14.9275 7.0207 15.0118 7.12382 15.0118L8.67304 15.0048L11.0004 12.2275L13.3277 15.0025L14.8746 15.0095C14.9777 15.0095 15.0621 14.9275 15.0621 14.822C15.0621 14.7775 15.0457 14.7353 15.0175 14.7001L11.973 11.0697L15.0222 7.43685C15.0504 7.40403 15.0644 7.3595 15.0644 7.31497Z" fill="#27930C"/>
<path d="M11 0.52356C5.20156 0.52356 0.5 5.22512 0.5 11.0236C0.5 16.822 5.20156 21.5236 11 21.5236C16.7984 21.5236 21.5 16.822 21.5 11.0236C21.5 5.22512 16.7984 0.52356 11 0.52356ZM11 19.7423C6.18594 19.7423 2.28125 15.8376 2.28125 11.0236C2.28125 6.2095 6.18594 2.30481 11 2.30481C15.8141 2.30481 19.7188 6.2095 19.7188 11.0236C19.7188 15.8376 15.8141 19.7423 11 19.7423Z" fill="#27930C"/>
</svg>
