<svg width="180" height="180" viewBox="0 0 180 180" fill="none" xmlns="http://www.w3.org/2000/svg">
<path d="M145.933 92.2782L168.69 75.3013V149.657C168.69 151.731 168.282 153.785 167.488 155.702C166.694 157.618 165.53 159.359 164.064 160.826C162.597 162.293 160.856 163.456 158.939 164.25C157.023 165.044 154.969 165.452 152.894 165.452H27.1053C25.0309 165.452 22.9769 165.044 21.0605 164.25C19.144 163.456 17.4027 162.293 15.9359 160.826C14.4691 159.359 13.3056 157.618 12.5119 155.702C11.7181 153.785 11.3095 151.731 11.3096 149.657V75.3013L33.5529 91.895L80.5533 126.956C83.2822 128.992 86.5955 130.091 89.9998 130.091C93.4041 130.091 96.7174 128.992 99.4463 126.956L145.933 92.2782Z" fill="#EB6F24"/>
<path d="M168.69 75.3011L145.934 92.2781V56.7L168.69 75.3011Z" fill="#27930C"/>
<path d="M66.4309 29.3625H145.933V92.2782L99.4461 126.956C96.7172 128.992 93.404 130.091 89.9996 130.091C86.5953 130.091 83.282 128.992 80.5531 126.956L33.5527 91.895L33.6687 91.7403V29.3625H66.4309ZM106.794 94.9747L89.9996 51.2333L73.2055 94.9747L89.9996 83.8442L106.794 94.9747Z" fill="#FEDB41"/>
<path d="M100.079 18.1829L113.569 29.3626H66.4312L79.9206 18.1829C82.7538 15.833 86.319 14.5469 89.9999 14.5469C93.6808 14.5469 97.246 15.833 100.079 18.1829Z" fill="#27930C"/>
<path d="M89.9997 51.2332L106.794 94.9746L89.9997 83.8441L73.2056 94.9746L89.9997 51.2332Z" fill="#F4B844"/>
<path d="M33.6689 56.7986V91.7404L33.5529 91.8951L11.3096 75.3013L33.6408 56.7986H33.6689Z" fill="#27930C"/>
<path d="M170.898 72.5459L149.414 55.0332V29.3624C149.414 27.4218 147.875 26.0156 145.934 26.0156H114.836L102.323 15.5612C98.8535 12.6971 94.4927 11.1341 89.9936 11.1416C85.4944 11.1492 81.139 12.7269 77.6788 15.6026L65.1635 26.0156H33.6691C33.2208 25.9982 32.7737 26.0722 32.3549 26.2331C31.9361 26.394 31.5545 26.6384 31.2331 26.9515C30.9118 27.2646 30.6576 27.6398 30.4859 28.0543C30.3142 28.4688 30.2286 28.9139 30.2344 29.3624V55.1225L9.10723 72.5625C8.70451 72.8828 8.37811 73.2888 8.15167 73.7509C7.92523 74.213 7.80442 74.7198 7.79801 75.2343H7.73438V149.657C7.73438 160.305 16.4573 169.102 27.1055 169.102H152.895C163.543 169.102 172.266 160.305 172.266 149.657V75.2343H172.202C172.199 74.7172 172.081 74.2073 171.855 73.7421C171.629 73.2769 171.302 72.8681 170.898 72.5459ZM162.945 75.1746L149.414 85.269V64.1137L162.945 75.1746ZM82.1647 20.9731C84.3731 19.1543 87.1471 18.1633 90.0081 18.1712C92.869 18.179 95.6376 19.1851 97.836 21.016L103.816 26.0156H76.1836L82.1647 20.9731ZM142.383 33.0468V90.5143L97.3273 124.137C95.2101 125.708 92.6437 126.556 90.0074 126.556C87.371 126.556 84.8046 125.708 82.6875 124.137L37.2656 90.2176V33.0468H142.383ZM30.2344 64.2536V84.9726L17.0757 75.1563L30.2344 64.2536ZM152.895 162.07H27.1055C20.334 162.07 14.7656 156.428 14.7656 149.657V82.3099L78.4216 129.774C81.7749 132.245 85.831 133.578 89.9963 133.578C94.1617 133.578 98.2177 132.245 101.571 129.774L165.234 82.3102V149.657C165.234 156.428 159.666 162.07 152.895 162.07Z" fill="#474747"/>
<path d="M71.0066 97.7171C71.5879 98.1834 72.3023 98.4529 73.0468 98.4867C73.7912 98.5205 74.5271 98.3169 75.1483 97.9052L90.0001 88.0615L104.852 97.9052C105.473 98.3169 106.209 98.5206 106.954 98.4868C107.698 98.453 108.413 98.1835 108.994 97.7172C109.575 97.2508 109.993 96.6118 110.188 95.8924C110.382 95.173 110.343 94.4103 110.076 93.7146L93.2823 49.9732C93.0275 49.3094 92.5774 48.7384 91.9914 48.3356C91.4054 47.9329 90.7111 47.7173 90.0001 47.7173C89.289 47.7173 88.5947 47.9329 88.0087 48.3356C87.4228 48.7384 86.9727 49.3094 86.7179 49.9732L69.9259 93.7146C69.6586 94.4102 69.6192 95.1727 69.8134 95.8921C70.0077 96.6115 70.4255 97.2506 71.0066 97.7171ZM90.0001 61.0418L99.571 85.9697L91.9421 80.9135C91.3663 80.5319 90.6908 80.3284 90.0001 80.3284C89.3093 80.3284 88.6339 80.5319 88.0581 80.9135L80.4291 85.9697L90.0001 61.0418Z" fill="#474747"/>
</svg>
