<svg width="24" height="24" viewBox="0 0 24 24" fill="none" xmlns="http://www.w3.org/2000/svg">
<path fill-rule="evenodd" clip-rule="evenodd" d="M7.919 17.377L3.05 4H1C0.734 4 0.48 3.895 0.293 3.707C0.105 3.52 0 3.265 0 3C0 2.448 0.447 2 1 2H4.45L9.919 17.025C10.76 17.126 11.509 17.525 12.058 18.113L23.316 14.016L24 15.895L12.951 19.916C12.983 20.106 13 20.301 13 20.5C13 22.432 11.431 24 9.5 24C7.568 24 6 22.432 6 20.5C6 19.137 6.781 17.955 7.919 17.377ZM9.5 19.188C10.224 19.188 10.812 19.776 10.812 20.5C10.812 21.224 10.224 21.813 9.5 21.813C8.775 21.813 8.187 21.224 8.187 20.5C8.187 19.776 8.775 19.188 9.5 19.188ZM15.299 6.898L20.066 5.163L22.802 12.68L11.396 16.832L8.66 9.314L13.419 7.582L14.744 11.221L16.623 10.537L15.299 6.898ZM15.836 5.638L8.318 8.374L6.266 2.736L13.784 0L15.836 5.638Z" fill="#C4C4C4"/>
</svg>
