<svg width="22" height="18" viewBox="0 0 22 18" fill="none" xmlns="http://www.w3.org/2000/svg">
<path d="M20.75 0.750122H1.25C0.835156 0.750122 0.5 1.08528 0.5 1.50012V16.5001C0.5 16.915 0.835156 17.2501 1.25 17.2501H20.75C21.1648 17.2501 21.5 16.915 21.5 16.5001V1.50012C21.5 1.08528 21.1648 0.750122 20.75 0.750122ZM2.1875 2.43762H19.8125V5.25012H2.1875V2.43762ZM19.8125 15.5626H2.1875V7.31262H19.8125V15.5626ZM14.2578 14.0626H18.125C18.2281 14.0626 18.3125 13.9782 18.3125 13.8751V12.1876C18.3125 12.0845 18.2281 12.0001 18.125 12.0001H14.2578C14.1547 12.0001 14.0703 12.0845 14.0703 12.1876V13.8751C14.0703 13.9782 14.1547 14.0626 14.2578 14.0626Z" fill="#27930C"/>
</svg>
