<svg width="64" height="64" viewBox="0 0 64 64" fill="none" xmlns="http://www.w3.org/2000/svg">
<path d="M20 25.0666L44 11.2266" stroke="#27930C" stroke-width="2" stroke-linecap="round" stroke-linejoin="round"/>
<path d="M8 42.6667V21.3334C8.00096 20.3981 8.24785 19.4796 8.7159 18.6698C9.18395 17.8601 9.8567 17.1877 10.6667 16.7201L29.3333 6.0534C30.1441 5.5853 31.0638 5.33887 32 5.33887C32.9362 5.33887 33.8559 5.5853 34.6667 6.0534L53.3333 16.7201C54.1433 17.1877 54.8161 17.8601 55.2841 18.6698C55.7522 19.4796 55.999 20.3981 56 21.3334V42.6667C55.999 43.602 55.7522 44.5206 55.2841 45.3303C54.8161 46.14 54.1433 46.8124 53.3333 47.2801L34.6667 57.9467C33.8559 58.4148 32.9362 58.6613 32 58.6613C31.0638 58.6613 30.1441 58.4148 29.3333 57.9467L10.6667 47.2801C9.8567 46.8124 9.18395 46.14 8.7159 45.3303C8.24785 44.5206 8.00096 43.602 8 42.6667Z" stroke="#27930C" stroke-width="2" stroke-linecap="round" stroke-linejoin="round"/>
<path d="M55.2798 18.5599L31.9998 32.0266L8.71979 18.5599" stroke="#27930C" stroke-width="2" stroke-linecap="round" stroke-linejoin="round"/>
<path d="M32 58.88V32" stroke="#27930C" stroke-width="2" stroke-linecap="round" stroke-linejoin="round"/>
<path d="M63.5083 43.1146C63.5083 48.9857 58.5682 53.7704 52.4427 53.7704C46.3172 53.7704 41.3771 48.9857 41.3771 43.1146C41.3771 37.2436 46.3172 32.4589 52.4427 32.4589C58.5682 32.4589 63.5083 37.2436 63.5083 43.1146Z" fill="white" stroke="#2B9B60" stroke-width="0.819672"/>
<circle cx="52" cy="44" r="11.5902" fill="#2B9B60" stroke="#2B9B60" stroke-width="0.819672"/>
<g clip-path="url(#clip0_663_10936)">
<path d="M52 43.7143C53.5781 43.7143 54.8571 42.4353 54.8571 40.8571C54.8571 39.279 53.5781 38 52 38C50.4219 38 49.1429 39.279 49.1429 40.8571C49.1429 42.4353 50.4219 43.7143 52 43.7143ZM54 44.4286H53.6272C53.1317 44.6562 52.5804 44.7857 52 44.7857C51.4196 44.7857 50.8705 44.6562 50.3728 44.4286H50C48.3438 44.4286 47 45.7723 47 47.4286V48.3571C47 48.9487 47.4799 49.4286 48.0714 49.4286H55.9286C56.5201 49.4286 57 48.9487 57 48.3571V47.4286C57 45.7723 55.6562 44.4286 54 44.4286Z" fill="white"/>
</g>
<defs>
<clipPath id="clip0_663_10936">
<rect width="10" height="11.4286" fill="white" transform="translate(47 38)"/>
</clipPath>
</defs>
</svg>
