<svg width="64" height="64" viewBox="0 0 64 64" fill="none" xmlns="http://www.w3.org/2000/svg">
<path d="M20 25.0666L44 11.2266" stroke="#27930C" stroke-width="2" stroke-linecap="round" stroke-linejoin="round"/>
<path d="M8 42.6667V21.3334C8.00096 20.3981 8.24785 19.4796 8.7159 18.6698C9.18395 17.8601 9.8567 17.1877 10.6667 16.7201L29.3333 6.0534C30.1441 5.5853 31.0638 5.33887 32 5.33887C32.9362 5.33887 33.8559 5.5853 34.6667 6.0534L53.3333 16.7201C54.1433 17.1877 54.8161 17.8601 55.2841 18.6698C55.7522 19.4796 55.999 20.3981 56 21.3334V42.6667C55.999 43.602 55.7522 44.5206 55.2841 45.3303C54.8161 46.14 54.1433 46.8124 53.3333 47.2801L34.6667 57.9467C33.8559 58.4148 32.9362 58.6613 32 58.6613C31.0638 58.6613 30.1441 58.4148 29.3333 57.9467L10.6667 47.2801C9.8567 46.8124 9.18395 46.14 8.7159 45.3303C8.24785 44.5206 8.00096 43.602 8 42.6667Z" stroke="#27930C" stroke-width="2" stroke-linecap="round" stroke-linejoin="round"/>
<path d="M55.2798 18.5599L31.9998 32.0266L8.71979 18.5599" stroke="#27930C" stroke-width="2" stroke-linecap="round" stroke-linejoin="round"/>
<path d="M32 58.88V32" stroke="#27930C" stroke-width="2" stroke-linecap="round" stroke-linejoin="round"/>
<path d="M63.5083 43.1146C63.5083 48.9857 58.5682 53.7704 52.4427 53.7704C46.3172 53.7704 41.3771 48.9857 41.3771 43.1146C41.3771 37.2436 46.3172 32.4589 52.4427 32.4589C58.5682 32.4589 63.5083 37.2436 63.5083 43.1146Z" fill="white" stroke="#2B9B60" stroke-width="0.819672"/>
<circle cx="52" cy="44" r="12" fill="#FFBC0E"/>
<g clip-path="url(#clip0_663_10985)">
<path d="M58.65 45.7H58.3V43.3353C58.3 43.0575 58.1884 42.7906 57.9916 42.5938L55.8062 40.4084C55.6094 40.2116 55.3425 40.1 55.0647 40.1H54.1V39.05C54.1 38.4703 53.6297 38 53.05 38H46.05C45.4703 38 45 38.4703 45 39.05V46.05C45 46.6297 45.4703 47.1 46.05 47.1H46.4C46.4 48.2594 47.3406 49.2 48.5 49.2C49.6594 49.2 50.6 48.2594 50.6 47.1H53.4C53.4 48.2594 54.3406 49.2 55.5 49.2C56.6594 49.2 57.6 48.2594 57.6 47.1H58.65C58.8425 47.1 59 46.9425 59 46.75V46.05C59 45.8575 58.8425 45.7 58.65 45.7ZM48.5 48.15C47.9203 48.15 47.45 47.6797 47.45 47.1C47.45 46.5203 47.9203 46.05 48.5 46.05C49.0797 46.05 49.55 46.5203 49.55 47.1C49.55 47.6797 49.0797 48.15 48.5 48.15ZM55.5 48.15C54.9203 48.15 54.45 47.6797 54.45 47.1C54.45 46.5203 54.9203 46.05 55.5 46.05C56.0797 46.05 56.55 46.5203 56.55 47.1C56.55 47.6797 56.0797 48.15 55.5 48.15ZM57.25 43.6H54.1V41.15H55.0647L57.25 43.3353V43.6Z" fill="white"/>
</g>
<defs>
<clipPath id="clip0_663_10985">
<rect width="14" height="11.2" fill="white" transform="translate(45 38)"/>
</clipPath>
</defs>
</svg>
