<svg width="48" height="48" viewBox="0 0 48 48" fill="none" xmlns="http://www.w3.org/2000/svg">
<path d="M6 45C6 46.658 4.656 48 3 48C1.346 48 0 46.658 0 45C0 43.342 1.346 42 3 42C4.656 42 6 43.342 6 45ZM33.338 7.502L32.094 5.266C30.628 6.218 29.378 7.396 28.334 8.804L30.594 10.066C31.376 9.064 32.288 8.21 33.338 7.502ZM8.394 43.15C8.566 43.682 8.66 44.248 8.66 44.834C8.66 45.128 8.636 45.418 8.592 45.7C10.212 45.478 11.708 45.138 13.078 44.68L12.318 42.25C11.128 42.652 9.824 42.952 8.394 43.15ZM20.124 28.212L31.26 20.514L22.952 29.284L31.61 36.994L38 13.562L12.438 26.344L20.124 28.212ZM39.368 2.61C37.516 2.914 35.846 3.394 34.352 4.052L35.596 6.288C36.818 5.772 38.186 5.39 39.71 5.14C39.472 4.526 39.34 3.86 39.34 3.164L39.368 2.61ZM44.998 0C43.344 0 42 1.342 42 3C42 4.658 43.344 6 44.998 6C46.654 6 48 4.658 48 3C48 1.342 46.654 0 44.998 0V0ZM18 38.678C17.042 39.686 15.966 40.56 14.688 41.24L15.46 43.706C16.38 43.252 17.214 42.714 18.002 42.124V38.678H18ZM22.024 39.562L25.494 34.406L22.024 31.316V39.562ZM29.208 12.228L26.972 10.978C26.238 12.372 25.688 13.88 25.23 15.44L28.488 13.842C28.71 13.292 28.938 12.742 29.208 12.228Z" fill="#474747"/>
</svg>
