<svg width="300" height="300" viewBox="0 0 300 300" fill="none" xmlns="http://www.w3.org/2000/svg">
<g opacity="0.15">
<path opacity="0.15" d="M47.2637 116.377H71.0687V127.981H47.2637" stroke="#474747" stroke-width="6" stroke-miterlimit="10" stroke-linecap="round" stroke-linejoin="round"/>
<path opacity="0.15" d="M94.8731 127.981H71.0684" stroke="#474747" stroke-width="6" stroke-miterlimit="10" stroke-linecap="round" stroke-linejoin="round"/>
<path opacity="0.15" d="M71.0684 116.377H80.1833" stroke="#474747" stroke-width="6" stroke-miterlimit="10" stroke-linecap="round" stroke-linejoin="round"/>
<path opacity="0.15" d="M82.9712 127.981H59.1665V139.585H82.9712V127.981Z" stroke="#474747" stroke-width="6" stroke-miterlimit="10" stroke-linecap="round" stroke-linejoin="round"/>
<path opacity="0.15" d="M50.9663 139.641H71.069V151.246H63.3665" stroke="#474747" stroke-width="6" stroke-miterlimit="10" stroke-linecap="round" stroke-linejoin="round"/>
<path opacity="0.15" d="M94.8731 139.641H71.0684V151.246H94.8731V139.641Z" stroke="#474747" stroke-width="6" stroke-miterlimit="10" stroke-linecap="round" stroke-linejoin="round"/>
<path opacity="0.15" d="M174.16 158.39H197.965V169.994H174.16" stroke="#474747" stroke-width="6" stroke-miterlimit="10" stroke-linecap="round" stroke-linejoin="round"/>
<path opacity="0.15" d="M221.77 169.994H197.965" stroke="#474747" stroke-width="6" stroke-miterlimit="10" stroke-linecap="round" stroke-linejoin="round"/>
<path opacity="0.15" d="M197.965 158.39H207.08" stroke="#474747" stroke-width="6" stroke-miterlimit="10" stroke-linecap="round" stroke-linejoin="round"/>
<path opacity="0.15" d="M209.867 169.994H186.062V181.598H209.867V169.994Z" stroke="#474747" stroke-width="6" stroke-miterlimit="10" stroke-linecap="round" stroke-linejoin="round"/>
<path opacity="0.15" d="M177.862 181.654H197.965V193.258H190.263" stroke="#474747" stroke-width="6" stroke-miterlimit="10" stroke-linecap="round" stroke-linejoin="round"/>
<path opacity="0.15" d="M213.305 193.258H197.965V181.654H217.785" stroke="#474747" stroke-width="6" stroke-miterlimit="10" stroke-linecap="round" stroke-linejoin="round"/>
<path opacity="0.15" d="M133.482 72.8889H96.5396V102.836H133.482V72.8889Z" stroke="#474747" stroke-width="6" stroke-miterlimit="10" stroke-linecap="round" stroke-linejoin="round"/>
<path opacity="0.15" d="M101.635 95.9007L108.404 86.1006L115.404 94.7754" stroke="#474747" stroke-width="6" stroke-miterlimit="10" stroke-linecap="round" stroke-linejoin="round"/>
<path opacity="0.15" d="M112.835 91.5921L122.279 82.4253L128.981 95.9007" stroke="#474747" stroke-width="6" stroke-miterlimit="10" stroke-linecap="round" stroke-linejoin="round"/>
<path opacity="0.15" d="M110.368 88.5369C110.835 87.1218 112.168 86.1006 113.739 86.1006C115.034 86.1006 116.167 86.7939 116.787 87.8292L110.368 88.5369ZM229.506 123.058H176.964C175.024 123.058 173.452 121.486 173.452 119.546C173.452 117.606 175.024 116.034 176.964 116.034H229.506C231.446 116.034 233.019 117.606 233.019 119.546C233.018 121.486 231.446 123.058 229.506 123.058Z" stroke="#474747" stroke-width="6" stroke-miterlimit="10" stroke-linecap="round" stroke-linejoin="round"/>
<path opacity="0.15" d="M211.446 116.034H196.061L192.861 96.4023H214.646L211.446 116.034Z" stroke="#474747" stroke-width="6" stroke-miterlimit="10" stroke-linecap="round" stroke-linejoin="round"/>
<path opacity="0.15" d="M217.646 90.7017H189.954V96.4023H217.646V90.7017Z" stroke="#474747" stroke-width="6" stroke-miterlimit="10" stroke-linecap="round" stroke-linejoin="round"/>
<path opacity="0.15" d="M210.207 73.3209L214.142 66.8103C214.9 65.5575 216.603 65.2887 217.709 66.2478C218.815 67.2069 218.791 68.9313 217.658 69.8583L210.285 75.8916M207.317 90.7017C205.423 90.7017 203.529 90.7017 201.635 90.7017C200.09 85.2603 198.731 79.5588 198.898 73.9983C199.097 71.3334 201.976 69.0759 204.476 69.0768C206.976 69.0759 209.855 71.3334 210.055 73.9983C210.221 79.5591 208.863 85.2603 207.317 90.7017Z" stroke="#474747" stroke-width="6" stroke-miterlimit="10" stroke-linecap="round" stroke-linejoin="round"/>
<path opacity="0.15" d="M214.199 66.7407L212.325 60.9225C212.037 60.0282 212.623 59.0901 213.553 58.9581C214.483 58.8261 215.308 59.5635 215.281 60.5028L215.141 65.205" stroke="#474747" stroke-width="6" stroke-miterlimit="10" stroke-linecap="round" stroke-linejoin="round"/>
</g>
<path d="M162.021 194.183L201.605 112.984L162.411 93.8778L122.827 175.076L162.021 194.183Z" fill="#27930C"/>
<path d="M162.021 194.183L201.605 112.984L162.411 93.8778L122.827 175.076L162.021 194.183Z" stroke="#474747" stroke-width="2" stroke-miterlimit="10" stroke-linecap="round" stroke-linejoin="round"/>
<path d="M186.081 110.971L173.552 104.862C171.173 109.741 165.289 111.768 160.41 109.389L129.516 172.756L159.713 187.479L190.608 124.112C185.729 121.733 183.702 115.85 186.081 110.971Z" fill="#F6F9EA"/>
<path d="M186.081 110.971L173.552 104.862C171.173 109.741 165.289 111.768 160.41 109.389L129.516 172.756L159.713 187.479L190.608 124.112C185.729 121.733 183.702 115.85 186.081 110.971Z" stroke="#474747" stroke-width="2" stroke-miterlimit="10" stroke-linecap="round" stroke-linejoin="round"/>
<path d="M194.926 115.274L164.727 100.554L129.532 172.759L159.731 187.479L194.926 115.274Z" stroke="#474747" stroke-width="2" stroke-miterlimit="10" stroke-linecap="round" stroke-linejoin="round"/>
<path d="M165.21 147.981C170.895 147.981 175.504 143.372 175.504 137.687C175.504 132.002 170.895 127.393 165.21 127.393C159.525 127.393 154.916 132.002 154.916 137.687C154.916 143.372 159.525 147.981 165.21 147.981Z" fill="#27930C"/>
<path d="M165.21 147.981C170.895 147.981 175.504 143.372 175.504 137.687C175.504 132.002 170.895 127.393 165.21 127.393C159.525 127.393 154.916 132.002 154.916 137.687C154.916 143.372 159.525 147.981 165.21 147.981Z" stroke="#474747" stroke-width="6" stroke-miterlimit="10" stroke-linecap="round" stroke-linejoin="round"/>
<path d="M161.212 198.096L231.069 140.823L203.424 107.104L133.568 164.377L161.212 198.096Z" fill="#27930C"/>
<path d="M161.212 198.096L231.069 140.823L203.424 107.104L133.568 164.377L161.212 198.096Z" stroke="#474747" stroke-width="2" stroke-miterlimit="10" stroke-linecap="round" stroke-linejoin="round"/>
<path d="M217.785 132.524L208.948 121.745C204.75 125.187 198.558 124.574 195.116 120.376L140.6 165.073L161.9 191.053L216.417 146.356C212.975 142.158 213.588 135.966 217.785 132.524Z" fill="#F6F9EA"/>
<path d="M217.785 132.524L208.948 121.745C204.75 125.187 198.558 124.574 195.116 120.376L140.6 165.073L161.9 191.053L216.417 146.356C212.975 142.158 213.588 135.966 217.785 132.524Z" stroke="#474747" stroke-width="2" stroke-miterlimit="10" stroke-linecap="round" stroke-linejoin="round"/>
<path d="M224.02 140.123L202.719 114.143L140.602 165.07L161.902 191.051L224.02 140.123Z" stroke="#474747" stroke-width="2" stroke-miterlimit="10" stroke-linecap="round" stroke-linejoin="round"/>
<path d="M187.671 158.389C193.356 158.389 197.965 153.78 197.965 148.095C197.965 142.41 193.356 137.801 187.671 137.801C181.986 137.801 177.377 142.41 177.377 148.095C177.377 153.78 181.986 158.389 187.671 158.389Z" fill="#27930C"/>
<path d="M187.671 158.389C193.356 158.389 197.965 153.78 197.965 148.095C197.965 142.41 193.356 137.801 187.671 137.801C181.986 137.801 177.377 142.41 177.377 148.095C177.377 153.78 181.986 158.389 187.671 158.389Z" stroke="#474747" stroke-width="2" stroke-miterlimit="10" stroke-linecap="round" stroke-linejoin="round"/>
<path opacity="0.32" d="M188.825 137.317C188.825 131.983 186.822 127.11 183.534 123.402L133.558 164.376L161.203 198.095L188.825 175.448V137.317Z" fill="#474747" stroke="#474747" stroke-width="6" stroke-miterlimit="10" stroke-linecap="round" stroke-linejoin="round"/>
<path opacity="0.15" d="M50.7002 224.617H249.3" stroke="#474747" stroke-width="6" stroke-miterlimit="10" stroke-linecap="round" stroke-linejoin="round"/>
<path d="M167.825 224.617H104.825C94.8836 224.617 86.8247 216.558 86.8247 206.617V135.817C86.8247 125.876 94.8836 117.817 104.825 117.817H167.825C177.766 117.817 185.825 125.876 185.825 135.817V206.617C185.825 216.558 177.766 224.617 167.825 224.617Z" fill="#EB6F24"/>
<path d="M167.825 224.617H104.825C94.8836 224.617 86.8247 216.558 86.8247 206.617V135.817C86.8247 125.876 94.8836 117.817 104.825 117.817H167.825C177.766 117.817 185.825 125.876 185.825 135.817V206.617C185.825 216.558 177.766 224.617 167.825 224.617Z" fill="#EB6F24"/>
<path d="M167.825 220.981H104.825C94.8836 220.981 86.8247 212.922 86.8247 202.981V206.617C86.8247 216.558 94.8836 224.617 104.825 224.617H167.825C177.766 224.617 185.825 216.558 185.825 206.617V202.981C185.825 212.922 177.766 220.981 167.825 220.981Z" fill="#EB6F24"/>
<path d="M167.825 117.817H104.825C94.8836 117.817 86.8247 125.221 86.8247 134.356V138.215C86.8247 129.081 94.8836 121.676 104.825 121.676H167.825C177.766 121.676 185.825 129.081 185.825 138.215V134.356C185.825 125.222 177.766 117.817 167.825 117.817Z" fill="#FFBC0E"/>
<path opacity="0.3" d="M146.825 161.76H130.625C127.642 161.76 125.225 159.342 125.225 156.36V123.217C125.225 120.235 127.642 117.817 130.625 117.817H152.225V156.36C152.225 159.342 149.807 161.76 146.825 161.76Z" fill="#474747" stroke="#474747" stroke-width="2" stroke-miterlimit="10" stroke-linecap="round" stroke-linejoin="round"/>
<path d="M167.825 224.617H104.825C94.8836 224.617 86.8247 216.558 86.8247 206.617V135.817C86.8247 125.876 94.8836 117.817 104.825 117.817H167.825C177.766 117.817 185.825 125.876 185.825 135.817V206.617C185.825 216.558 177.766 224.617 167.825 224.617Z" stroke="#474747" stroke-width="2" stroke-miterlimit="10" stroke-linecap="round" stroke-linejoin="round"/>
<path opacity="0.46" d="M93.4248 206.159V136.275C93.4248 129.979 98.5287 124.875 104.825 124.875H167.825C174.121 124.875 179.225 129.979 179.225 136.275V206.159C179.225 212.455 174.121 217.559 167.825 217.559H104.825C98.5287 217.559 93.4248 212.455 93.4248 206.159Z" stroke="#474747" stroke-width="2" stroke-linecap="round" stroke-linejoin="round" stroke-dasharray="13.96 9.97"/>
<path d="M144.425 158.46H128.225C125.242 158.46 122.825 156.042 122.825 153.06V116.46C122.825 113.477 125.242 111.06 128.225 111.06H144.425C147.407 111.06 149.825 113.477 149.825 116.46V153.06C149.825 156.042 147.407 158.46 144.425 158.46Z" fill="#FFD200"/>
<path d="M144.425 155.96H128.225C125.242 155.96 122.825 153.542 122.825 150.56V153.06C122.825 156.042 125.242 158.46 128.225 158.46H144.425C147.407 158.46 149.825 156.042 149.825 153.06V150.56C149.825 153.542 147.407 155.96 144.425 155.96Z" fill="#E27444"/>
<path d="M144.425 111.06H128.225C125.242 111.06 122.825 113.477 122.825 116.46V118.5C122.825 115.518 125.242 113.1 128.225 113.1H144.425C147.407 113.1 149.825 115.518 149.825 118.5V116.46C149.825 113.477 147.407 111.06 144.425 111.06Z" fill="#FDB740"/>
<path d="M144.425 158.46H128.225C125.242 158.46 122.825 156.042 122.825 153.06V116.46C122.825 113.477 125.242 111.06 128.225 111.06H144.425C147.407 111.06 149.825 113.477 149.825 116.46V153.06C149.825 156.042 147.407 158.46 144.425 158.46Z" stroke="#474747" stroke-width="2" stroke-miterlimit="10" stroke-linecap="round" stroke-linejoin="round"/>
<path opacity="0.3" d="M137.225 150.75C141.077 150.75 144.2 147.627 144.2 143.775C144.2 139.923 141.077 136.8 137.225 136.8C133.372 136.8 130.25 139.923 130.25 143.775C130.25 147.627 133.372 150.75 137.225 150.75Z" fill="#474747" stroke="#474747" stroke-width="2" stroke-miterlimit="10" stroke-linecap="round" stroke-linejoin="round"/>
<path opacity="0.46" d="M128.225 154.86C127.232 154.86 126.425 154.052 126.425 153.06V116.46C126.425 115.467 127.232 114.66 128.225 114.66H144.425C145.418 114.66 146.225 115.467 146.225 116.46V153.06C146.225 154.052 145.418 154.86 144.425 154.86H128.225Z" stroke="#474747" stroke-width="2" stroke-linecap="round" stroke-linejoin="round" stroke-dasharray="9.84 11.81"/>
<path d="M136.325 148.95C140.177 148.95 143.3 145.827 143.3 141.975C143.3 138.123 140.177 135 136.325 135C132.472 135 129.35 138.123 129.35 141.975C129.35 145.827 132.472 148.95 136.325 148.95Z" fill="#EB6F24"/>
<path d="M136.325 148.95C140.177 148.95 143.3 145.827 143.3 141.975C143.3 138.123 140.177 135 136.325 135C132.472 135 129.35 138.123 129.35 141.975C129.35 145.827 132.472 148.95 136.325 148.95Z" stroke="#474747" stroke-width="2" stroke-miterlimit="10" stroke-linecap="round" stroke-linejoin="round"/>
<path opacity="0.6" d="M139.266 138.399C139.52 139.533 138.164 140.261 136.167 140.673C134.167 141.068 132.37 141.135 132.124 140.174C131.87 139.23 133.225 137.478 135.222 136.91C137.223 136.325 139.02 137.282 139.266 138.399Z" fill="#F29E25"/>
<path d="M236.493 224.617H215.485C214.281 224.617 213.305 223.641 213.305 222.437V220.98C213.305 219.776 214.281 218.8 215.485 218.8H236.493C237.697 218.8 238.673 219.776 238.673 220.98V222.437C238.673 223.641 237.697 224.617 236.493 224.617Z" fill="#FDB740"/>
<path opacity="0.88" d="M236.493 219.4H215.485C214.281 219.4 213.305 220.376 213.305 221.58V222.43C213.305 221.226 214.281 220.25 215.485 220.25H236.493C237.697 220.25 238.673 221.226 238.673 222.43V221.58C238.673 220.376 237.697 219.4 236.493 219.4Z" fill="#FFF3C0"/>
<path d="M236.493 223.96H215.485C214.281 223.96 213.305 222.984 213.305 221.78V220.93C213.305 222.134 214.281 223.11 215.485 223.11H236.493C237.697 223.11 238.673 222.134 238.673 220.93V221.78C238.673 222.984 237.697 223.96 236.493 223.96Z" fill="#F29E25"/>
<path d="M236.493 224.617H215.485C214.281 224.617 213.305 223.641 213.305 222.437V220.98C213.305 219.776 214.281 218.8 215.485 218.8H236.493C237.697 218.8 238.673 219.776 238.673 220.98V222.437C238.673 223.641 237.697 224.617 236.493 224.617Z" stroke="#474747" stroke-width="2" stroke-miterlimit="10" stroke-linecap="round" stroke-linejoin="round"/>
<path d="M239.989 218.8H218.982C217.778 218.8 216.802 217.824 216.802 216.62V215.163C216.802 213.959 217.778 212.983 218.982 212.983H239.989C241.194 212.983 242.169 213.959 242.169 215.163V216.62C242.169 217.824 241.193 218.8 239.989 218.8Z" fill="#FDB740"/>
<path opacity="0.88" d="M239.989 213.583H218.982C217.778 213.583 216.802 214.559 216.802 215.763V216.613C216.802 215.409 217.778 214.433 218.982 214.433H239.989C241.194 214.433 242.169 215.409 242.169 216.613V215.763C242.169 214.559 241.193 213.583 239.989 213.583Z" fill="#FFF3C0"/>
<path d="M239.989 218.143H218.982C217.778 218.143 216.802 217.167 216.802 215.963V215.113C216.802 216.317 217.778 217.293 218.982 217.293H239.989C241.194 217.293 242.169 216.317 242.169 215.113V215.963C242.169 217.167 241.193 218.143 239.989 218.143Z" fill="#F29E25"/>
<path d="M239.989 218.8H218.982C217.778 218.8 216.802 217.824 216.802 216.62V215.163C216.802 213.959 217.778 212.983 218.982 212.983H239.989C241.194 212.983 242.169 213.959 242.169 215.163V216.62C242.169 217.824 241.193 218.8 239.989 218.8Z" stroke="#474747" stroke-width="2" stroke-miterlimit="10" stroke-linecap="round" stroke-linejoin="round"/>
<path d="M236.493 212.983H215.485C214.281 212.983 213.305 212.007 213.305 210.803V209.346C213.305 208.142 214.281 207.166 215.485 207.166H236.493C237.697 207.166 238.673 208.142 238.673 209.346V210.803C238.673 212.007 237.697 212.983 236.493 212.983Z" fill="#FDB740"/>
<path opacity="0.88" d="M236.493 207.766H215.485C214.281 207.766 213.305 208.742 213.305 209.946V210.796C213.305 209.592 214.281 208.616 215.485 208.616H236.493C237.697 208.616 238.673 209.592 238.673 210.796V209.946C238.673 208.742 237.697 207.766 236.493 207.766Z" fill="#FFF3C0"/>
<path d="M236.493 212.326H215.485C214.281 212.326 213.305 211.35 213.305 210.146V209.296C213.305 210.5 214.281 211.476 215.485 211.476H236.493C237.697 211.476 238.673 210.5 238.673 209.296V210.146C238.673 211.35 237.697 212.326 236.493 212.326Z" fill="#F29E25"/>
<path d="M236.493 212.983H215.485C214.281 212.983 213.305 212.007 213.305 210.803V209.346C213.305 208.142 214.281 207.166 215.485 207.166H236.493C237.697 207.166 238.673 208.142 238.673 209.346V210.803C238.673 212.007 237.697 212.983 236.493 212.983Z" stroke="#474747" stroke-width="2" stroke-miterlimit="10" stroke-linecap="round" stroke-linejoin="round"/>
<path d="M212.718 208.584L198.367 223.926C197.544 224.805 196.165 224.852 195.285 224.029L194.222 223.034C193.342 222.211 193.296 220.832 194.119 219.952L208.469 204.61C209.292 203.731 210.671 203.685 211.551 204.507L212.615 205.502C213.494 206.325 213.54 207.705 212.718 208.584Z" fill="#FDB740"/>
<path opacity="0.88" d="M208.907 205.02L194.557 220.362C193.734 221.242 193.78 222.621 194.66 223.444L195.28 224.024C194.401 223.202 194.355 221.822 195.177 220.943L209.528 205.601C210.351 204.722 211.73 204.675 212.61 205.498L211.989 204.917C211.11 204.095 209.73 204.141 208.907 205.02Z" fill="#FFF3C0"/>
<path d="M212.238 208.135L197.887 223.477C197.065 224.357 195.685 224.403 194.806 223.58L194.185 223C195.064 223.822 196.444 223.776 197.267 222.897L211.617 207.555C212.44 206.676 212.394 205.296 211.514 204.473L212.135 205.054C213.014 205.876 213.06 207.256 212.238 208.135Z" fill="#F29E25"/>
<path d="M212.718 208.584L198.367 223.926C197.544 224.805 196.165 224.852 195.285 224.029L194.222 223.034C193.342 222.211 193.296 220.832 194.119 219.952L208.469 204.61C209.292 203.731 210.671 203.685 211.551 204.507L212.615 205.502C213.494 206.325 213.54 207.705 212.718 208.584Z" stroke="#474747" stroke-width="2" stroke-miterlimit="10" stroke-linecap="round" stroke-linejoin="round"/>
</svg>
